<?xml version="1.0" encoding="iso-8859-1"?>
<!-- Generator: Adobe Illustrator 19.0.0, SVG Export Plug-In . SVG Version: 6.00 Build 0)  -->
<svg version="1.1" id="Capa_1" xmlns="http://www.w3.org/2000/svg" xmlns:xlink="http://www.w3.org/1999/xlink" x="0px" y="0px"
	 viewBox="0 0 512 512" style="enable-background:new 0 0 512 512;" xml:space="preserve">
<g>
	<g>
		<path d="M466.998,361.001h-1.938c11.786-10.014,18.123-25.836,15.25-42.13c-0.851-4.841-48.068-273.58-49.49-281.677
			c-4.32-24.494-27.636-40.822-52.131-36.502l-59.089,10.419c-9.455,1.667-17.694,6.199-24.004,12.533
			C287.98,9.579,273.088,0.004,256,0.004h-60c-11.517,0-22.032,4.353-30,11.495c-7.968-7.141-18.483-11.495-30-11.495h-60
			c-24.813,0-45,20.187-45,45c0,32.028,0,268.153,0,300.998c0,5.765,1.102,11.275,3.086,16.345
			c-19.556,4.891-34.086,22.605-34.086,43.655c0,24.813,20.187,45,45,45h16v46c0,8.284,6.716,15,15,15h60c8.284,0,15-6.716,15-15
			v-46h209.998v46c0,8.284,6.716,15,15,15h60c8.284,0,15-6.716,15-15v-46h16c24.813,0,45-20.187,45-45
			C511.998,381.188,491.812,361.001,466.998,361.001z M450.765,324.071c1.437,8.146-4.021,15.941-12.167,17.377l-59.088,10.419
			c-8.146,1.436-15.941-4.021-17.376-12.158l-2.597-14.782l88.631-15.628L450.765,324.071z M422.213,161.563l20.766,118.189
			l-88.632,15.628L333.58,177.19L422.213,161.563z M416.938,132.03l-88.549,15.614l-7.958-45.291l88.625-15.627L416.938,132.03z
			 M324.811,40.656L383.9,30.237c8.121-1.432,15.932,3.969,17.376,12.158l2.597,14.783L315.24,72.805l-2.596-14.774
			C311.207,49.886,316.665,42.092,324.811,40.656z M301,346.001V166.003v-0.271l0.327,1.88c0.101,0.577,0.244,1.142,0.409,1.698
			l25.6,145.701c0.018,0.118,0.023,0.236,0.044,0.355c0.023,0.13,0.059,0.253,0.085,0.381l5.124,29.163
			c1.039,5.894,3.196,11.313,6.202,16.092h-40.372C300.085,356.306,301,351.259,301,346.001z M181.001,45.004
			c0-8.271,6.729-15,15-15h60c8.271,0,15,6.729,15,15v15h-89.999V45.004z M181.001,90.003H271v61h-89.999V90.003z M181.001,181.002
			H271v119.999h-89.999V181.002z M181,331.001H271v15c0,8.271-6.729,15-15,15h-60c-8.271,0-15-6.729-15-15V331.001z M61.001,45.004
			c0-8.271,6.729-15,15-15h60c8.271,0,15,6.729,15,15v15H61.001V45.004z M61.001,90.003h89.999v61H61.001V90.003z M61.001,181.002
			h89.999v119.999H61.001V181.002z M61.001,331.001h89.999v15c0,8.271-6.729,15-15,15h-60c-8.271,0-15-6.729-15-15V331.001z
			 M121.001,482h-30v-31h30V482z M420.999,482h-30v-31h30V482z M466.998,421.001c-19.033,0-411.503,0-421.997,0
			c-8.271,0-15-6.729-15-15s6.729-15,15-15c22.766,0,403.054,0,421.997,0c8.271,0,15,6.729,15,15S475.269,421.001,466.998,421.001z"
			/>
	</g>
</g>
<g>
	<g>
		<path d="M106.001,211.002c-8.284,0-15,6.716-15,15v30c0,8.284,6.716,15,15,15s15-6.716,15-15v-30
			C121.001,217.718,114.285,211.002,106.001,211.002z"/>
	</g>
</g>
<g>
	<g>
		<path d="M226,211.002c-8.284,0-15,6.716-15,15v30c0,8.284,6.716,15,15,15s15-6.716,15-15v-30
			C241,217.718,234.284,211.002,226,211.002z"/>
	</g>
</g>
<g>
	<g>
		<path d="M405.594,240.649l-5.209-29.544c-1.438-8.158-9.212-13.606-17.377-12.168c-8.158,1.439-13.607,9.219-12.168,17.377
			l5.209,29.544c1.283,7.278,7.612,12.398,14.755,12.398c0.864,0,1.741-0.075,2.622-0.23
			C401.584,256.588,407.032,248.808,405.594,240.649z"/>
	</g>
</g>
<g>
</g>
<g>
</g>
<g>
</g>
<g>
</g>
<g>
</g>
<g>
</g>
<g>
</g>
<g>
</g>
<g>
</g>
<g>
</g>
<g>
</g>
<g>
</g>
<g>
</g>
<g>
</g>
<g>
</g>
</svg>
