<?xml version="1.0" encoding="iso-8859-1"?>
<!-- Generator: Adobe Illustrator 16.0.0, SVG Export Plug-In . SVG Version: 6.00 Build 0)  -->
<!DOCTYPE svg PUBLIC "-//W3C//DTD SVG 1.1//EN" "http://www.w3.org/Graphics/SVG/1.1/DTD/svg11.dtd">
<svg version="1.1" id="Capa_1" xmlns="http://www.w3.org/2000/svg" xmlns:xlink="http://www.w3.org/1999/xlink" x="0px" y="0px"
	 width="960px" height="960px" viewBox="0 0 960 960" style="enable-background:new 0 0 960 960;" xml:space="preserve">
<g>
	<g>
		<path d="M776.8,0h-50c-16.6,0-30,13.4-30,30v243c0,18.9-8.8,37.1-18.6,52.7c-8.601,13.8-19.2,26.5-31,37.6
			c-14.3,13.5-34,28.3-60.101,40c16.101,4.2,31.801,9.4,47,15.601c25.7,10.399,49.801,23.5,72,39.1
			c5.801-4.7,11.301-9.7,16.801-14.8C774.7,394.1,806.8,330.1,806.8,276V30C806.8,13.4,793.4,0,776.8,0z"/>
		<path d="M312.8,596.6c14.3-13.5,34-28.3,60.101-40C356.8,552.4,341.1,547.2,325.9,541c-25.7-10.4-49.8-23.5-72-39.1
			c-5.8,4.699-11.3,9.699-16.8,14.8c-51.8,49.1-83.9,113.1-83.9,167.2v246c0,16.6,13.4,30,30,30h50c16.6,0,30-13.4,30-30V687
			c0-18.8,8.8-37.1,18.6-52.7C290.5,620.4,301,607.8,312.8,596.6z"/>
		<path d="M722.8,516.7c-5.399-5.101-11-10.101-16.8-14.8c-4.7-3.9-9.6-7.601-14.5-11.2c-5.1-3.7-10.3-7.3-15.6-10.7l0,0
			c-17.301-11.1-35.7-20.7-55.101-28.6C577.7,433.9,530.3,425,480,425c-29.3,0-54.8-4-76.9-10.5c-10.899-3.2-21-7-30.3-11.1
			c-26-11.7-45.8-26.5-60.1-40c-8.5-8.1-15.7-16.3-21.8-24.4h22.6H338h213.9H622c11.9-11.1,22.4-24,30.3-38.3
			c4.5-8.3,9.5-18,9.5-27.7H551.9H298.2h-17.5h-17.5v-48h17.5h17.5h253.7H661.8v-66H551.9H298.2h-17.5h-17.5v-48h17.5h17.5h253.7
			H661.8V45H551.9H298.2h-17.5h-17.5V30c0-16.6-13.4-30-30-30h-50c-16.6,0-30,13.4-30,30v246c0,54.1,32.2,118.2,83.9,167.2
			c5.4,5.1,11,10.1,16.8,14.8c4.7,3.9,9.6,7.6,14.5,11.2c5.1,3.7,10.3,7.3,15.6,10.7l0,0c17.3,11.1,35.7,20.699,55.1,28.6
			C382.3,526.1,429.7,535,480,535c29.3,0,54.8,4,76.9,10.5c10.899,3.2,21,7,30.3,11.1c26,11.7,45.8,26.5,60.1,40
			c8.5,8.101,15.7,16.301,21.8,24.4h-22.6H622H408.1H338c-11.9,11.1-22.4,24-30.3,38.3c-4.5,8.3-9.5,18-9.5,27.7H408.1h253.7h17.5
			h17.5v48h-17.5h-17.5H408.1H298.2v66H408.1h253.7h17.5h17.5v48h-17.5h-17.5H408.1H298.2v66H408.1h253.7h17.5h17.5v15
			c0,16.6,13.4,30,30,30h50c16.601,0,30-13.4,30-30V684C806.8,629.9,774.6,565.8,722.8,516.7z"/>
	</g>
</g>
<g>
</g>
<g>
</g>
<g>
</g>
<g>
</g>
<g>
</g>
<g>
</g>
<g>
</g>
<g>
</g>
<g>
</g>
<g>
</g>
<g>
</g>
<g>
</g>
<g>
</g>
<g>
</g>
<g>
</g>
</svg>
