<svg height="448pt" viewBox="0 -16 448.00002 448" width="448pt" xmlns="http://www.w3.org/2000/svg"><path d="m336 .00390625c-46.351562.21484375-87.835938 28.81249975-104.527344 72.05468775-1.183594 3.097656-4.15625 5.140625-7.472656 5.140625s-6.289062-2.042969-7.472656-5.140625c-19.242188-50.46875-71.78125-80-124.898438-70.203125-53.117187 9.800781-91.660156 56.132812-91.628906 110.148437 0 131.65625 164 304 224 304s224-172.34375 224-304c-.066406-61.828125-50.171875-111.9335935-112-111.99999975zm-200 163.31249975-26.34375 26.34375c-3.140625 3.03125-8.128906 2.988282-11.214844-.097656-3.085937-3.085938-3.128906-8.078125-.097656-11.214844l26.34375-26.34375-26.34375-26.34375c-3.03125-3.140625-2.988281-8.128906.097656-11.214844 3.085938-3.085937 8.074219-3.128906 11.214844-.097656l26.34375 26.34375 26.34375-26.34375c3.140625-3.03125 8.128906-2.988281 11.214844.097656 3.085937 3.085938 3.128906 8.074219.097656 11.214844l-26.34375 26.34375 26.34375 26.34375c2.078125 2.007813 2.914062 4.980469 2.179688 7.78125-.730469 2.796875-2.914063 4.980469-5.710938 5.710938-2.796875.734375-5.773438-.101563-7.78125-2.179688zm144 142.765625v21.921875c0 4.417969-3.582031 8-8 8h-96c-4.417969 0-8-3.582031-8-8v-64c0-30.929687 25.070312-56 56-56s56 25.070313 56 56zm69.65625-127.734375c2.078125 2.007813 2.914062 4.980469 2.179688 7.78125-.730469 2.796875-2.914063 4.980469-5.710938 5.710938-2.796875.734375-5.773438-.101563-7.78125-2.179688l-26.34375-26.34375-26.34375 26.34375c-3.140625 3.03125-8.128906 2.988282-11.214844-.097656-3.085937-3.085938-3.128906-8.078125-.097656-11.214844l26.34375-26.34375-26.34375-26.34375c-3.03125-3.140625-2.988281-8.128906.097656-11.214844 3.085938-3.085937 8.074219-3.128906 11.214844-.097656l26.34375 26.34375 26.34375-26.34375c3.140625-3.03125 8.128906-2.988281 11.214844.097656 3.085937 3.085938 3.128906 8.074219.097656 11.214844l-26.34375 26.34375zm0 0"/><path d="m224 224.003906c-22.082031.027344-39.972656 17.917969-40 40v30.398438c26.035156-8.207032 53.964844-8.207032 80 0v-30.398438c-.027344-22.082031-17.917969-39.972656-40-40zm0 0"/><path d="m184 311.339844v8.664062h80v-8.664062c-25.796875-9.625-54.203125-9.625-80 0zm0 0"/></svg>